<?xml version="1.0" standalone="no"?>
<!DOCTYPE svg PUBLIC "-//W3C//DTD SVG 20010904//EN"
 "http://www.w3.org/TR/2001/REC-SVG-20010904/DTD/svg10.dtd">
<svg version="1.0" xmlns="http://www.w3.org/2000/svg"
 width="260.000000pt" height="260.000000pt" viewBox="0 0 260.000000 260.000000"
 preserveAspectRatio="xMidYMid meet">
<metadata>
Created by potrace 1.11, written by Peter Selinger 2001-2013
</metadata>
<g transform="translate(0.000000,260.000000) scale(0.100000,-0.100000)"
fill="#000000" stroke="none">
<path d="M0 1300 l0 -1300 1300 0 1300 0 0 1300 0 1300 -1300 0 -1300 0 0
-1300z m670 870 c0 -16 -7 -20 -37 -20 -21 0 -54 -8 -73 -18 -60 -29 -64 -50
-68 -306 -2 -125 0 -232 5 -237 11 -11 396 340 454 413 42 54 52 105 24 128
-9 7 -38 15 -65 18 -41 4 -50 8 -50 23 0 18 12 19 255 19 242 0 255 -1 255
-19 0 -15 -10 -19 -55 -24 -34 -3 -74 -16 -103 -33 -44 -26 -502 -468 -502
-485 0 -15 531 -579 583 -620 59 -47 118 -79 145 -79 11 0 22 -9 25 -20 5 -20
0 -20 -294 -20 -292 0 -299 0 -299 20 0 18 7 20 53 20 41 0 58 5 72 20 18 20
18 22 -2 63 -32 67 -128 178 -295 345 l-154 153 -28 -22 -28 -22 4 -226 c3
-189 6 -231 20 -257 19 -36 60 -54 119 -54 32 0 39 -3 39 -20 0 -20 -7 -20
-275 -20 -268 0 -275 0 -275 20 0 17 7 20 40 20 65 0 106 22 121 67 22 59 20
1046 -1 1088 -18 37 -72 65 -122 65 -31 0 -38 4 -38 20 0 20 7 20 275 20 268
0 275 0 275 -20z m1539 -4 c217 -55 322 -179 308 -360 -7 -92 -36 -156 -102
-222 -93 -94 -179 -121 -407 -131 l-148 -6 0 -209 c0 -240 6 -269 64 -293 20
-8 54 -15 76 -15 33 0 40 -3 40 -20 0 -20 -7 -20 -274 -20 -263 0 -274 1 -269
19 4 14 17 20 55 23 59 6 86 29 98 84 15 61 11 1021 -3 1064 -14 41 -63 70
-119 70 -32 0 -35 2 -31 21 6 21 7 21 327 16 252 -4 335 -8 385 -21z"/>
<path d="M1895 2111 l-30 -6 -3 -288 -2 -287 94 0 c52 0 118 5 146 11 118 25
197 121 207 252 16 194 -94 304 -317 320 -36 3 -78 2 -95 -2z"/>
</g>
</svg>
